<svg width="1837" height="1084" viewBox="0 0 1837 1084" fill="none" xmlns="http://www.w3.org/2000/svg">
<path d="M0.289391 336.951C0.289391 329.837 2.39132 324.178 6.59517 319.974H11.9308C25.5125 320.944 42.4896 321.429 62.8621 321.429C101.02 321.429 123.495 320.944 130.285 319.974H135.136C137.076 321.914 138.046 323.369 138.046 324.339C138.046 325.31 137.723 328.22 137.076 333.071C135.459 337.921 134.004 340.993 132.711 342.287H122.525C115.41 342.933 110.56 343.257 107.973 343.257C98.5949 344.874 93.4209 347.299 92.4508 350.533C92.4508 351.179 97.1397 391.763 106.518 472.283C115.895 552.803 120.746 593.386 121.069 594.033L156.479 537.281C180.085 499.446 203.691 461.288 227.298 422.807C250.904 384.325 263.03 364.438 263.677 363.144C264.971 360.881 265.617 358.455 265.617 355.868C265.617 348.107 258.503 343.58 244.275 342.287C238.454 342.287 235.544 340.508 235.544 336.951C235.544 336.628 235.867 334.526 236.514 330.645C237.484 326.118 238.454 323.208 239.424 321.914C240.394 320.621 242.496 319.974 245.73 319.974C246.377 319.974 248.317 319.974 251.551 319.974C254.784 319.974 260.282 320.136 268.043 320.459C275.804 320.782 286.151 320.944 299.086 320.944C321.399 320.944 335.466 320.621 341.287 319.974H344.682C346.946 322.238 348.077 324.016 348.077 325.31C348.077 330.807 346.622 335.981 343.712 340.832C342.742 341.802 339.993 342.287 335.466 342.287C331.262 342.61 327.382 342.933 323.824 343.257C320.267 343.58 316.872 344.389 313.638 345.682C310.404 346.976 307.817 348.107 305.877 349.078C303.937 350.048 301.997 351.341 300.057 352.958C298.116 354.575 296.499 355.707 295.206 356.353C293.912 357 292.619 358.455 291.325 360.719C290.032 362.983 288.9 364.114 287.93 364.114L194.313 514.483C136.106 608.585 106.032 656.767 104.092 659.031C103.122 659.678 101.99 660.486 100.697 661.456L91.9657 661.941H88.5703C82.7496 661.941 79.8392 660.81 79.8392 658.546C78.8691 656.606 72.5633 604.866 60.9219 503.327C48.6337 400.494 42.3279 348.592 42.0046 347.622C40.3877 344.065 30.3631 342.287 11.9308 342.287H3.68481C1.4212 340.67 0.289391 338.891 0.289391 336.951Z" fill="#6C9EFF"/>
<path d="M512.028 482.954C512.028 478.75 514.291 475.516 518.819 473.253H827.802C832.653 475.84 835.078 479.073 835.078 482.954C835.078 486.511 832.814 489.583 828.287 492.17L674.038 492.655H519.789C514.615 491.038 512.028 487.804 512.028 482.954ZM512.028 577.056C512.028 572.205 514.615 568.971 519.789 567.354H828.287C832.814 570.588 835.078 573.822 835.078 577.056C835.078 581.259 832.653 584.493 827.802 586.757H518.819C514.291 584.493 512.028 581.259 512.028 577.056Z" fill="#6C9EFF"/>
<path d="M1083.43 466.948C1083.43 458.864 1080.36 454.822 1074.21 454.822C1066.45 454.822 1058.37 459.51 1049.96 468.888C1041.55 478.266 1034.6 492.656 1029.1 512.059C1028.78 512.382 1028.46 512.867 1028.13 513.514C1027.81 514.161 1027.65 514.646 1027.65 514.969C1027.65 515.292 1027.32 515.616 1026.68 515.939C1026.03 516.262 1025.54 516.424 1025.22 516.424C1024.9 516.424 1024.25 516.424 1023.28 516.424C1022.31 516.424 1021.02 516.424 1019.4 516.424H1012.61C1010.67 514.484 1009.7 513.029 1009.7 512.059C1009.7 509.795 1010.99 505.106 1013.58 497.992C1016.17 490.878 1020.05 482.47 1025.22 472.769C1030.4 463.068 1037.51 454.822 1046.56 448.031C1055.62 441.24 1065.8 437.683 1077.12 437.359C1090.7 437.359 1101.21 441.24 1108.65 449.001C1116.09 456.762 1119.97 465.816 1120.29 476.164C1120.29 481.661 1119.81 485.865 1118.84 488.776C1118.84 490.716 1116.41 497.83 1111.56 510.118C1106.71 522.407 1101.7 536.797 1096.53 553.289C1091.35 569.781 1088.44 584.171 1087.79 596.459C1087.79 605.19 1088.6 612.304 1090.22 617.802C1094.42 631.707 1104.61 638.659 1120.78 638.659C1132.74 638.659 1143.9 633.162 1154.25 622.167C1164.6 611.173 1172.68 598.399 1178.5 583.847C1184.32 569.296 1189.01 555.876 1192.57 543.588C1196.12 531.299 1197.9 522.407 1197.9 516.909C1197.9 509.472 1196.61 503.004 1194.02 497.507C1191.44 492.009 1188.52 487.806 1185.29 484.895C1182.06 481.985 1179.15 479.075 1176.56 476.164C1173.97 473.254 1172.68 469.697 1172.68 465.493C1172.68 458.379 1175.75 451.749 1181.9 445.605C1188.04 439.461 1194.67 436.389 1201.78 436.389C1207.93 436.389 1213.42 439.3 1218.28 445.12C1223.13 450.941 1225.71 460.319 1226.04 473.254C1226.04 481.985 1224.1 495.405 1220.22 513.514C1216.34 531.623 1210.35 551.834 1202.27 574.146C1194.18 596.459 1182.7 615.7 1167.83 631.868C1152.95 648.037 1135.82 656.283 1116.41 656.607C1095.72 656.607 1079.22 651.271 1066.94 640.6C1054.97 630.252 1048.99 614.891 1048.99 594.519C1048.99 584.494 1050.28 574.146 1052.87 563.475C1055.46 552.804 1062.09 533.886 1072.76 506.723C1079.87 486.027 1083.43 472.769 1083.43 466.948Z" fill="#6C9EFF"/>
<path d="M1836.24 544.556H1295.4V515.453H1836.24V544.556Z" fill="#6C9EFF"/>
<path d="M1546.66 43.0054L1540.36 45.4307C1535.83 47.0475 1529.36 48.6644 1520.95 50.2813C1512.55 51.8982 1503.17 53.03 1492.82 53.6767H1483.6V31.3639H1492.82C1508.02 30.7172 1522.08 28.2919 1535.02 24.088C1547.95 19.8842 1557.01 16.0037 1562.18 12.4466C1567.36 8.88949 1571.88 5.33238 1575.76 1.77527C1576.41 0.805153 1578.35 0.320093 1581.59 0.320093C1584.5 0.320093 1587.24 1.29021 1589.83 3.23045V148.263L1590.32 293.781C1592.58 296.045 1594.52 297.5 1596.14 298.147C1597.75 298.794 1601.63 299.44 1607.78 300.087C1613.92 300.734 1623.95 301.057 1637.85 301.057H1650.46V323.37H1645.13C1638.34 322.4 1612.63 321.915 1568 321.915C1524.03 321.915 1498.64 322.4 1491.85 323.37H1486.03V301.057H1498.64C1505.75 301.057 1511.9 301.057 1517.07 301.057C1522.25 301.057 1526.29 300.896 1529.2 300.572C1532.11 300.249 1534.7 299.764 1536.96 299.117C1539.22 298.47 1540.52 298.147 1540.84 298.147C1541.16 298.147 1542.13 297.339 1543.75 295.722C1545.37 294.105 1546.34 293.458 1546.66 293.781V43.0054Z" fill="#6C9EFF"/>
<path d="M1381.74 1062.6C1382.39 1062.6 1383.36 1062.92 1384.65 1063.57C1385.94 1064.22 1387.72 1064.7 1389.99 1065.03C1392.25 1065.35 1394.19 1065.51 1395.81 1065.51C1400.01 1065.51 1403.89 1063.41 1407.45 1059.21C1411.01 1055 1413.59 1050.31 1415.21 1045.14C1418.44 1036.41 1423.94 1011.67 1431.7 970.925C1439.46 930.18 1446.9 891.375 1454.01 854.51C1461.13 817.646 1464.69 799.052 1464.69 798.728V797.273H1441.89C1426.69 797.273 1418.61 796.95 1417.64 796.303C1416.34 795.333 1415.69 793.716 1415.69 791.453L1419.09 777.871C1419.74 776.254 1421.03 775.446 1422.97 775.446C1424.91 775.446 1432.51 775.284 1445.77 774.961C1461.29 774.961 1469.05 774.799 1469.05 774.475C1469.05 773.829 1470.51 765.744 1473.42 750.222C1476.33 734.701 1478.27 725.323 1479.24 722.089C1491.2 668.732 1514.81 642.054 1550.06 642.054C1562.02 642.701 1571.88 646.258 1579.65 652.725C1587.41 659.193 1591.29 667.762 1591.29 678.434C1591.29 690.075 1587.89 698.483 1581.1 703.657C1574.31 708.831 1567.52 711.579 1560.73 711.903C1546.5 711.903 1539.39 705.112 1539.39 691.53C1539.39 685.386 1541.16 680.05 1544.72 675.523C1548.28 670.996 1552.16 667.601 1556.36 665.337L1560.73 662.912C1555.55 660.971 1550.7 660.001 1546.18 660.001C1542.3 660.001 1538.58 661.618 1535.02 664.852C1531.46 668.086 1529.04 672.613 1527.74 678.434C1525.48 687.811 1522.89 700.423 1519.98 716.268C1517.07 732.114 1514.49 745.534 1512.22 756.528C1509.96 767.523 1508.83 773.344 1508.83 773.99C1508.83 774.637 1517.72 774.961 1535.5 774.961C1550.06 774.961 1558.46 775.122 1560.73 775.446C1562.99 775.769 1564.77 776.739 1566.06 778.356C1566.39 779.649 1566.06 782.398 1565.09 786.602C1564.12 790.806 1563.31 793.393 1562.67 794.363C1562.02 795.98 1560.57 796.788 1558.3 796.788C1556.04 796.788 1547.31 796.95 1532.11 797.273H1504.95L1493.79 856.451C1478.27 936.647 1467.43 986.77 1461.29 1006.82C1452.56 1034.31 1441.24 1054.68 1427.34 1067.94C1415.37 1078.28 1403.57 1083.46 1391.93 1083.46C1381.58 1083.46 1372.2 1080.39 1363.79 1074.24C1355.39 1068.1 1351.18 1059.37 1351.18 1048.05C1351.18 1036.08 1354.58 1027.35 1361.37 1021.86C1368.16 1016.36 1374.95 1013.61 1381.74 1013.61C1395.97 1013.61 1403.08 1020.4 1403.08 1033.98C1403.08 1040.13 1401.3 1045.46 1397.75 1049.99C1394.19 1054.52 1390.31 1057.91 1386.11 1060.18L1381.74 1062.6Z" fill="#6C9EFF"/>
<path d="M1609.48 745.681C1609.71 744.995 1609.94 744.08 1610.17 742.937C1610.4 741.794 1610.97 739.279 1611.89 735.392C1612.8 731.506 1613.94 727.962 1615.31 724.761C1616.69 721.561 1618.4 717.788 1620.46 713.444C1622.52 709.101 1624.8 705.671 1627.32 703.156C1629.83 700.641 1632.8 698.127 1636.23 695.612C1639.66 693.097 1643.44 692.068 1647.55 692.525C1654.18 692.525 1660.01 693.897 1665.04 696.64C1670.07 699.384 1673.61 701.899 1675.67 704.185C1677.73 706.471 1678.99 708.758 1679.44 711.044C1679.9 712.416 1680.24 713.102 1680.47 713.102C1680.7 713.102 1681.62 712.301 1683.22 710.701C1694.19 698.812 1706.88 692.868 1721.28 692.868H1722.31C1733.29 692.868 1741.52 697.555 1747 706.929C1748.83 711.273 1749.75 715.502 1749.75 719.617C1749.75 726.476 1748.26 731.963 1745.29 736.078C1742.32 740.194 1739.34 742.823 1736.37 743.966C1733.4 745.109 1730.54 745.566 1727.8 745.338C1723.23 745.338 1719.57 744.08 1716.82 741.565C1714.08 739.05 1712.71 735.735 1712.71 731.62C1712.71 720.646 1719.11 713.33 1731.91 709.672C1726.88 706.7 1722.77 705.214 1719.57 705.214C1706.76 705.214 1694.99 713.673 1684.25 730.591C1681.96 734.249 1680.24 738.022 1679.1 741.908C1677.96 745.795 1674.07 760.998 1667.44 787.519C1659.67 819.526 1655.21 836.559 1654.07 838.617C1651.09 844.79 1646.18 847.876 1639.32 847.876C1636.35 847.876 1633.95 847.19 1632.12 845.818C1630.29 844.447 1629.03 843.075 1628.35 841.703C1627.66 840.331 1627.43 839.188 1627.66 838.274C1627.66 835.302 1632.23 815.64 1641.38 779.288C1650.52 742.937 1655.1 722.704 1655.1 718.589C1655.1 709.672 1652.12 705.214 1646.18 705.214C1641.38 705.214 1637.26 708.415 1633.83 714.816C1630.4 721.218 1627.66 728.191 1625.6 735.735C1623.55 743.28 1622.29 747.395 1621.83 748.081C1621.37 748.538 1619.54 748.767 1616.34 748.767H1611.54C1610.17 747.395 1609.48 746.366 1609.48 745.681Z" fill="#6C9EFF"/>
</svg>
