<svg width="9" height="6" viewBox="0 0 9 6" fill="none" xmlns="http://www.w3.org/2000/svg">
<path d="M0.401789 2.9449C0.401789 2.98206 0.4374 3.00374 0.508623 3.00993C0.536492 3.00993 0.550427 3.01845 0.550427 3.03548C0.550427 3.03703 0.548879 3.04709 0.545782 3.06567C0.541137 3.08735 0.536492 3.10128 0.531847 3.10747C0.527202 3.11367 0.517138 3.11676 0.501655 3.11676C0.498559 3.11676 0.489269 3.11676 0.473785 3.11676C0.458302 3.11676 0.431981 3.11599 0.394821 3.11444C0.357662 3.11289 0.308115 3.11212 0.246183 3.11212C0.136252 3.11212 0.0658035 3.11367 0.0348372 3.11676H0.0162573C0.00541912 3.10593 0 3.09741 0 3.09122C0.00309664 3.04941 0.0131607 3.02232 0.0301922 3.00993H0.0627069C0.171089 3.00529 0.250053 2.96658 0.2996 2.89381C0.30889 2.88452 0.449012 2.6484 0.719968 2.18545C0.990924 1.7225 1.12872 1.48793 1.13337 1.48174C1.14421 1.46316 1.16279 1.45387 1.18911 1.45387H1.20769H1.24717C1.25646 1.4678 1.26111 1.47555 1.26111 1.47709L1.32613 2.22726C1.36949 2.72736 1.39271 2.97974 1.39581 2.98438C1.40355 3.00141 1.45387 3.00993 1.54677 3.00993C1.58548 3.00993 1.60483 3.01767 1.60483 3.03315C1.60483 3.03625 1.60251 3.04709 1.59786 3.06567C1.59322 3.08889 1.58935 3.10283 1.58625 3.10747C1.58316 3.11212 1.57232 3.11522 1.55374 3.11676C1.54909 3.11676 1.53825 3.11676 1.52122 3.11676C1.50419 3.11676 1.474 3.11599 1.43065 3.11444C1.38729 3.11289 1.33078 3.11212 1.26111 3.11212C1.11556 3.11212 1.02034 3.11367 0.975441 3.11676H0.947571C0.938281 3.10747 0.933636 3.10051 0.933636 3.09586C0.933636 3.09122 0.935184 3.07728 0.938281 3.05406C0.944474 3.03393 0.949119 3.02154 0.952216 3.0169L0.961506 3.00993H1.00796C1.09156 3.00529 1.14111 2.99212 1.15659 2.97045L1.12872 2.62208H0.575974L0.49701 2.75678C0.433529 2.86361 0.401789 2.92632 0.401789 2.9449ZM1.11711 2.51292C1.11711 2.49589 1.10782 2.37512 1.08924 2.15061C1.07066 1.92611 1.05982 1.81308 1.05673 1.81153L0.99402 1.9114C0.969247 1.9532 0.920475 2.03604 0.847704 2.1599L0.638681 2.51292L0.877897 2.51524C1.03737 2.51524 1.11711 2.51447 1.11711 2.51292Z" fill="#FF8585"/>
<path d="M2.44557 2.31087C2.44557 2.29074 2.45641 2.27526 2.47809 2.26442H3.9575C3.98073 2.2768 3.99234 2.29229 3.99234 2.31087C3.99234 2.3279 3.9815 2.34261 3.95983 2.35499L3.22128 2.35732H2.48273C2.45796 2.34957 2.44557 2.33409 2.44557 2.31087ZM2.44557 2.76143C2.44557 2.7382 2.45796 2.72272 2.48273 2.71498H3.95983C3.9815 2.73046 3.99234 2.74594 3.99234 2.76143C3.99234 2.78156 3.98073 2.79704 3.9575 2.80788H2.47809C2.45641 2.79704 2.44557 2.78156 2.44557 2.76143Z" fill="#FF8585"/>
<path d="M4.8563 2.75213C4.8563 2.59575 4.91514 2.44712 5.03281 2.30622C5.15048 2.16532 5.28286 2.0941 5.42995 2.09255C5.50892 2.09255 5.57859 2.13048 5.63898 2.20635C5.66375 2.1599 5.69936 2.13668 5.74581 2.13668C5.76594 2.13668 5.78374 2.14287 5.79923 2.15526C5.81471 2.16764 5.82245 2.18313 5.82245 2.20171C5.82245 2.22184 5.79381 2.3457 5.73652 2.5733C5.67923 2.80091 5.64981 2.92942 5.64827 2.95883C5.64827 2.99754 5.65368 3.02309 5.66452 3.03548C5.67536 3.04786 5.69162 3.05483 5.71329 3.05638C5.72723 3.05483 5.74271 3.04786 5.75974 3.03548C5.79226 3.00451 5.824 2.93019 5.85497 2.81252C5.86426 2.78155 5.872 2.76529 5.87819 2.76375C5.88129 2.7622 5.88903 2.76142 5.90142 2.76142H5.91071C5.94012 2.76142 5.95483 2.76839 5.95483 2.78233C5.95483 2.79162 5.95096 2.81252 5.94322 2.84503C5.93548 2.87755 5.92 2.91935 5.89677 2.97045C5.87355 3.02154 5.84877 3.06025 5.82245 3.08657C5.80232 3.1067 5.77755 3.12296 5.74813 3.13534C5.73575 3.13844 5.71717 3.13999 5.69239 3.13999C5.63975 3.13999 5.59562 3.12838 5.56001 3.10515C5.5244 3.08193 5.50118 3.05793 5.49034 3.03315L5.4764 2.99832C5.47485 2.99677 5.47176 2.99754 5.46711 3.00064C5.46402 3.00374 5.46092 3.00683 5.45782 3.00993C5.36647 3.09664 5.27357 3.13999 5.17912 3.13999C5.09397 3.13999 5.01887 3.10902 4.95384 3.04709C4.88882 2.98516 4.8563 2.88684 4.8563 2.75213ZM5.59485 2.35499C5.59485 2.3457 5.59098 2.32867 5.58324 2.3039C5.57549 2.27912 5.55769 2.25203 5.52982 2.22261C5.50195 2.19319 5.46634 2.17771 5.42298 2.17616C5.36879 2.17616 5.31693 2.20016 5.26738 2.24816C5.21783 2.29615 5.17912 2.35886 5.15126 2.43628C5.10635 2.55859 5.07461 2.68556 5.05603 2.81716C5.05603 2.82181 5.05603 2.83032 5.05603 2.84271C5.05603 2.8551 5.05526 2.86439 5.05371 2.87058C5.05371 2.94025 5.06765 2.98825 5.09552 3.01457C5.12339 3.0409 5.15667 3.05483 5.19538 3.05638C5.25422 3.05638 5.31228 3.03083 5.36957 2.97974C5.42686 2.92864 5.46092 2.88916 5.47176 2.86129C5.47485 2.8551 5.49576 2.77226 5.53446 2.61279C5.57317 2.45331 5.5933 2.36738 5.59485 2.35499Z" fill="#FF8585"/>
<path d="M8.88812 2.60582H6.29856V2.46647H8.88812V2.60582Z" fill="#FF8585"/>
<path d="M7.50161 0.204376L7.47141 0.215988C7.44974 0.22373 7.41877 0.231472 7.37851 0.239213C7.33826 0.246955 7.29336 0.252374 7.24381 0.255471H7.19968V0.148637H7.24381C7.31658 0.14554 7.38393 0.133928 7.44587 0.113799C7.5078 0.0936713 7.55115 0.0750915 7.57593 0.0580599C7.6007 0.0410284 7.62238 0.0239969 7.64095 0.00696544C7.64405 0.00232048 7.65334 -1.99582e-06 7.66882 -1.99582e-06C7.68276 -1.99582e-06 7.69592 0.00464296 7.70831 0.0139329V0.708354L7.71063 1.4051C7.72147 1.41594 7.73076 1.4229 7.7385 1.426C7.74624 1.4291 7.76482 1.43219 7.79424 1.43529C7.82366 1.43839 7.87165 1.43993 7.93823 1.43993H7.99862V1.54677H7.97307C7.94055 1.54212 7.81746 1.5398 7.6038 1.5398C7.39322 1.5398 7.27168 1.54212 7.23917 1.54677H7.2113V1.43993H7.27168C7.30574 1.43993 7.33516 1.43993 7.35994 1.43993C7.38471 1.43993 7.40406 1.43916 7.418 1.43761C7.43193 1.43606 7.44432 1.43374 7.45516 1.43064C7.46599 1.42755 7.47219 1.426 7.47374 1.426C7.47528 1.426 7.47993 1.42213 7.48767 1.41439C7.49541 1.40665 7.50006 1.40355 7.50161 1.4051V0.204376Z" fill="#FF8585"/>
<path d="M6.71196 5.08623C6.71506 5.08623 6.7197 5.08777 6.72589 5.09087C6.73209 5.09397 6.7406 5.09629 6.75144 5.09784C6.76228 5.09939 6.77157 5.10016 6.77931 5.10016C6.79944 5.10016 6.81802 5.0901 6.83505 5.06997C6.85208 5.04984 6.86447 5.02739 6.87221 5.00262C6.88769 4.96081 6.91401 4.84237 6.95117 4.64728C6.98833 4.45219 7.02395 4.26639 7.05801 4.08988C7.09207 3.91337 7.1091 3.82435 7.1091 3.8228V3.81583H6.99995C6.92718 3.81583 6.88847 3.81428 6.88382 3.81119C6.87763 3.80654 6.87453 3.7988 6.87453 3.78796L6.89079 3.72293C6.89389 3.71519 6.90008 3.71132 6.90937 3.71132C6.91866 3.71132 6.95505 3.71054 7.01853 3.709C7.09285 3.709 7.13001 3.70822 7.13001 3.70667C7.13001 3.70358 7.13697 3.66487 7.15091 3.59055C7.16484 3.51623 7.17413 3.47133 7.17878 3.45585C7.23607 3.20037 7.34909 3.07264 7.51786 3.07264C7.57515 3.07573 7.62237 3.09277 7.65953 3.12373C7.69669 3.1547 7.71527 3.19573 7.71527 3.24682C7.71527 3.30256 7.69901 3.34282 7.6665 3.36759C7.63398 3.39237 7.60147 3.40553 7.56895 3.40707C7.50083 3.40707 7.46676 3.37456 7.46676 3.30953C7.46676 3.28011 7.47528 3.25457 7.49231 3.23289C7.50934 3.21121 7.52792 3.19495 7.54805 3.18412L7.56895 3.1725C7.54418 3.16321 7.52096 3.15857 7.49928 3.15857C7.4807 3.15857 7.46289 3.16631 7.44586 3.18179C7.42883 3.19728 7.41722 3.21895 7.41103 3.24682C7.40019 3.29172 7.3878 3.35211 7.37387 3.42798C7.35993 3.50384 7.34754 3.5681 7.33671 3.62074C7.32587 3.67339 7.32045 3.70125 7.32045 3.70435C7.32045 3.70745 7.36303 3.709 7.44818 3.709C7.51786 3.709 7.55812 3.70977 7.56895 3.71132C7.57979 3.71287 7.58831 3.71751 7.5945 3.72525C7.59605 3.73145 7.5945 3.74461 7.58986 3.76474C7.58521 3.78486 7.58134 3.79725 7.57824 3.8019C7.57515 3.80964 7.56818 3.81351 7.55734 3.81351C7.5465 3.81351 7.5047 3.81428 7.43193 3.81583H7.30187L7.24845 4.09917C7.17413 4.48316 7.12226 4.72315 7.09285 4.81914C7.05104 4.95075 6.99685 5.04829 6.93027 5.11177C6.87298 5.16132 6.81647 5.18609 6.76073 5.18609C6.71119 5.18609 6.66628 5.17138 6.62603 5.14197C6.58577 5.11255 6.56564 5.07074 6.56564 5.01655C6.56564 4.95926 6.5819 4.91746 6.61442 4.89114C6.64693 4.86482 6.67944 4.85166 6.71196 4.85166C6.78009 4.85166 6.81415 4.88417 6.81415 4.9492C6.81415 4.97862 6.80563 5.00416 6.7886 5.02584C6.77157 5.04752 6.75299 5.06378 6.73286 5.07461L6.71196 5.08623Z" fill="#FF8585"/>
<path d="M7.8024 3.5688C7.80349 3.56552 7.80459 3.56114 7.80568 3.55566C7.80678 3.55019 7.80951 3.53815 7.81389 3.51954C7.81827 3.50093 7.82374 3.48396 7.83031 3.46864C7.83688 3.45331 7.84509 3.43525 7.85494 3.41445C7.86479 3.39365 7.87574 3.37723 7.88778 3.36519C7.89982 3.35315 7.91405 3.34111 7.93047 3.32907C7.94689 3.31703 7.96496 3.3121 7.98466 3.31429C8.0164 3.31429 8.04432 3.32086 8.0684 3.33399C8.09248 3.34713 8.10945 3.35917 8.1193 3.37012C8.12916 3.38107 8.13518 3.39201 8.13736 3.40296C8.13955 3.40953 8.1412 3.41281 8.14229 3.41281C8.14339 3.41281 8.14776 3.40898 8.15543 3.40132C8.20797 3.34439 8.26872 3.31593 8.33769 3.31593H8.34261C8.39516 3.31593 8.43457 3.33837 8.46084 3.38325C8.46959 3.40405 8.47397 3.4243 8.47397 3.44401C8.47397 3.47685 8.46686 3.50312 8.45263 3.52282C8.4384 3.54253 8.42417 3.55512 8.40994 3.56059C8.39571 3.56606 8.38202 3.56825 8.36889 3.56716C8.34699 3.56716 8.32948 3.56114 8.31634 3.5491C8.30321 3.53705 8.29664 3.52118 8.29664 3.50148C8.29664 3.44893 8.32729 3.4139 8.38859 3.39639C8.36451 3.38216 8.3448 3.37504 8.32948 3.37504C8.26818 3.37504 8.2118 3.41555 8.16035 3.49655C8.14941 3.51407 8.1412 3.53213 8.13572 3.55074C8.13025 3.56935 8.11164 3.64214 8.0799 3.76912C8.04268 3.92238 8.02133 4.00393 8.01586 4.01378C8.00163 4.04334 7.97809 4.05811 7.94525 4.05811C7.93102 4.05811 7.91953 4.05483 7.91077 4.04826C7.90201 4.04169 7.89599 4.03513 7.89271 4.02856C7.88942 4.02199 7.88833 4.01652 7.88942 4.01214C7.88942 3.99791 7.91132 3.90377 7.9551 3.72971C7.99889 3.55566 8.02078 3.45879 8.02078 3.43908C8.02078 3.39639 8.00655 3.37504 7.97809 3.37504C7.9551 3.37504 7.9354 3.39037 7.91898 3.42102C7.90256 3.45167 7.88942 3.48506 7.87957 3.52118C7.86972 3.55731 7.8637 3.57701 7.86151 3.58029C7.85932 3.58248 7.85056 3.58358 7.83524 3.58358H7.81225C7.80568 3.57701 7.8024 3.57208 7.8024 3.5688Z" fill="#FF8585"/>
</svg>
